<?xml version="1.0" encoding="UTF-8"?>
<svg xmlns="http://www.w3.org/2000/svg" width="160" height="53" viewBox="0 0 160 53" fill="none">
  <path d="M0 26.5679L7.40457 25.6718C7.65305 26.9661 9.0942 28.0115 10.7838 28.0115C12.6723 28.0115 14.2128 26.767 14.2128 25.2736C14.2128 20.2954 0 21.4902 0 10.7872C0 5.16191 4.82043 0.582031 10.8335 0.582031C16.3994 0.582031 20.9713 4.46497 21.6174 9.49288L14.2128 10.3889C13.9643 9.04485 12.5729 8.04923 10.8335 8.04923C8.94512 8.04923 7.40457 9.29376 7.40457 10.7872C7.40457 15.7653 21.6671 14.5706 21.6671 25.2736C21.6671 30.8988 16.7969 35.4289 10.7838 35.4289C5.26768 35.4289 0.695732 31.5958 0 26.5679Z" fill="#55185D"/>
  <path d="M26.0938 26.8168V17.4579H23.0624V9.9907H26.0938V0.681596H33.5481V9.9907H37.3249V17.4579H33.5481V26.8168C33.5481 27.4639 34.0947 28.0613 34.7905 28.0613C35.1383 28.0613 35.3868 28.0613 35.6353 27.8124L38.9649 34.5329C37.6728 35.2298 36.331 35.5285 34.7905 35.5285C30.0197 35.5285 26.0938 31.5958 26.0938 26.8168Z" fill="#55185D"/>
  <path d="M39.7569 22.7347V9.9907H47.1614V22.7347C47.1614 25.622 49.5468 28.0115 52.4291 28.0115C55.3611 28.0115 57.6968 25.622 57.6968 22.7347V9.9907H65.1511V35.4289H57.6968V32.3425C55.8084 34.284 53.3236 35.4289 50.5904 35.4289C44.5773 35.4289 39.7569 29.7539 39.7569 22.7347Z" fill="#55185D"/>
  <path d="M70.4991 26.8168V17.4579H67.4677V9.9907H70.4991V0.681596H77.9534V9.9907H81.7302V17.4579H77.9534V26.8168C77.9534 27.4639 78.5 28.0613 79.1958 28.0613C79.5436 28.0613 79.7921 28.0613 80.0406 27.8124L83.3701 34.5329C82.0781 35.2298 80.7363 35.5285 79.1958 35.5285C74.425 35.5285 70.4991 31.5958 70.4991 26.8168Z" fill="#55185D"/>
  <path d="M97.4746 17.4579H84.0569V9.9907H109.451V17.4579L96.0335 28.0115H109.451V35.4289H84.0569V28.0115L97.4746 17.4579Z" fill="#55185D"/>
  <path d="M125.271 18.2046C121.892 16.3129 117.668 18.7522 117.569 22.6849L125.271 18.2046ZM110.114 22.7347C110.114 15.7653 115.78 10.0405 122.787 10.0405C128.402 10.0405 133.173 13.7741 134.813 18.8518L120.252 27.2648C122.737 28.6587 125.818 27.7626 127.259 25.3233L133.719 29.1067C131.533 32.8901 127.458 35.4289 122.787 35.4289C115.78 35.4289 110.114 29.7539 110.114 22.7347Z" fill="#55185D"/>
  <path d="M150.459 18.2046C147.079 16.3129 142.855 18.7522 142.756 22.6849L150.459 18.2046ZM135.302 22.7347C135.302 15.7653 140.967 10.0405 147.974 10.0405C153.589 10.0405 158.36 13.7741 160 18.8518L145.439 27.2648C147.924 28.6587 151.005 27.7626 152.446 25.3233L158.907 29.1067C156.72 32.8901 152.645 35.4289 147.974 35.4289C140.967 35.4289 135.302 29.7539 135.302 22.7347Z" fill="#55185D"/>
  <rect y="40.9258" width="160" height="11.9914" fill="#FEA803"/>
  <path d="M5.68362 48.1642C5.68362 48.0903 5.67601 48.024 5.6608 47.9653C5.64775 47.9044 5.62057 47.8479 5.57926 47.7957C5.54013 47.7435 5.48033 47.6913 5.39989 47.6392C5.31944 47.5848 5.21182 47.5283 5.07702 47.4696C4.90743 47.4 4.7411 47.3217 4.57803 47.2348C4.41496 47.1456 4.2682 47.0423 4.13775 46.9249C4.00947 46.8053 3.90619 46.6662 3.82792 46.5075C3.74965 46.3466 3.71051 46.1596 3.71051 45.9465C3.71051 45.7421 3.74965 45.5584 3.82792 45.3954C3.90837 45.2301 4.01817 45.0899 4.15732 44.9746C4.29864 44.8572 4.46497 44.7681 4.6563 44.7072C4.84763 44.6442 5.05636 44.6126 5.28248 44.6126C5.58252 44.6126 5.84669 44.6735 6.07499 44.7953C6.30545 44.9149 6.48483 45.0855 6.61311 45.3073C6.74356 45.5269 6.80879 45.7867 6.80879 46.0868H5.69667C5.69667 45.9672 5.68145 45.8617 5.65101 45.7704C5.62057 45.6791 5.57274 45.6073 5.50751 45.5552C5.44446 45.503 5.36075 45.4769 5.25639 45.4769C5.1629 45.4769 5.08354 45.4986 5.01831 45.5421C4.95526 45.5856 4.90743 45.6443 4.87481 45.7182C4.8422 45.79 4.82589 45.8693 4.82589 45.9563C4.82589 46.0281 4.8422 46.0933 4.87481 46.152C4.90743 46.2085 4.952 46.2618 5.00853 46.3118C5.06723 46.3618 5.13463 46.4096 5.21073 46.4553C5.289 46.501 5.37271 46.5455 5.46185 46.589C5.6771 46.6695 5.86735 46.7597 6.03259 46.8597C6.2 46.9575 6.34024 47.0695 6.4533 47.1956C6.56636 47.3195 6.65116 47.4609 6.70769 47.6196C6.76639 47.7783 6.79574 47.9577 6.79574 48.1577C6.79574 48.3708 6.76095 48.5599 6.69138 48.7252C6.62398 48.8904 6.52505 49.0307 6.3946 49.1459C6.26414 49.259 6.10651 49.3448 5.9217 49.4035C5.73907 49.4622 5.53252 49.4916 5.30205 49.4916C5.09115 49.4916 4.88351 49.4612 4.67913 49.4003C4.47693 49.3372 4.29321 49.2416 4.12796 49.1133C3.9649 48.9828 3.83444 48.8165 3.7366 48.6143C3.63876 48.4099 3.58984 48.1675 3.58984 47.887H4.71174C4.71174 48.0262 4.72262 48.1436 4.74436 48.2392C4.7661 48.3349 4.7998 48.4121 4.84546 48.4708C4.89329 48.5273 4.95417 48.5686 5.02809 48.5947C5.10202 48.6186 5.19334 48.6306 5.30205 48.6306C5.40206 48.6306 5.47925 48.61 5.5336 48.5686C5.59013 48.5252 5.62927 48.4686 5.65101 48.3991C5.67275 48.3273 5.68362 48.249 5.68362 48.1642Z" fill="#111111"/>
  <path d="M9.0629 44.6779H9.96629L10.7131 47.9816L11.46 44.6779H12.3601L11.0817 49.4264H10.3446L9.0629 44.6779ZM8.50521 44.6779H9.44121L9.62058 48.3175V49.4264H8.50521V44.6779ZM11.9818 44.6779H12.9211V49.4264H11.8024V48.3175L11.9818 44.6779Z" fill="#111111"/>
  <path d="M16.5612 45.6758L15.6774 49.4264H14.4772L15.9416 44.6779H16.6917L16.5612 45.6758ZM17.2526 49.4264L16.3688 45.6758L16.2221 44.6779H16.9852L18.4528 49.4264H17.2526ZM17.2885 47.6555V48.5393H15.2306V47.6555H17.2885Z" fill="#111111"/>
  <path d="M19.9503 44.6779H21.5744C21.8919 44.6779 22.1669 44.7322 22.3996 44.8409C22.6322 44.9496 22.8105 45.1105 22.9344 45.3236C23.0605 45.5367 23.1236 45.7998 23.1236 46.1129C23.1236 46.3846 23.0888 46.6118 23.0192 46.7945C22.9518 46.9771 22.8561 47.1282 22.7322 47.2478C22.6083 47.3652 22.4626 47.462 22.2952 47.5381L21.9332 47.75H20.658L20.6515 46.8662H21.5484C21.6505 46.8662 21.7353 46.8401 21.8027 46.788C21.8701 46.7358 21.9201 46.6618 21.9528 46.5662C21.9875 46.4683 22.0049 46.352 22.0049 46.2172C22.0049 46.0802 21.9886 45.9628 21.956 45.865C21.9234 45.7672 21.8756 45.6921 21.8125 45.64C21.7516 45.5878 21.6723 45.5617 21.5744 45.5617H21.0657V49.4264H19.9503V44.6779ZM22.0539 49.4264L21.2124 47.3261L22.393 47.3195L23.2508 49.3775V49.4264H22.0539Z" fill="#111111"/>
  <path d="M26.7801 44.6779V49.4264H25.6614V44.6779H26.7801ZM27.9313 44.6779V45.5617H24.5428V44.6779H27.9313Z" fill="#111111"/>
  <path d="M32.3542 48.5458V49.4264H30.2767V48.5458H32.3542ZM30.6648 44.6779V49.4264H29.5495V44.6779H30.6648ZM32.0835 46.5629V47.4141H30.2767V46.5629H32.0835ZM32.364 44.6779V45.5617H30.2767V44.6779H32.364Z" fill="#111111"/>
  <path d="M33.9495 44.6779H35.5737C35.8911 44.6779 36.1662 44.7322 36.3988 44.8409C36.6314 44.9496 36.8097 45.1105 36.9337 45.3236C37.0598 45.5367 37.1228 45.7998 37.1228 46.1129C37.1228 46.3846 37.088 46.6118 37.0185 46.7945C36.9511 46.9771 36.8554 47.1282 36.7315 47.2478C36.6075 47.3652 36.4619 47.462 36.2944 47.5381L35.9324 47.75H34.6572L34.6507 46.8662H35.5476C35.6498 46.8662 35.7346 46.8401 35.802 46.788C35.8694 46.7358 35.9194 46.6618 35.952 46.5662C35.9868 46.4683 36.0042 46.352 36.0042 46.2172C36.0042 46.0802 35.9879 45.9628 35.9553 45.865C35.9226 45.7672 35.8748 45.6921 35.8118 45.64C35.7509 45.5878 35.6715 45.5617 35.5737 45.5617H35.0649V49.4264H33.9495V44.6779ZM36.0531 49.4264L35.2117 47.3261L36.3923 47.3195L37.25 49.3775V49.4264H36.0531Z" fill="#111111"/>
  <path d="M44.351 48.5458V49.4264H42.2735V48.5458H44.351ZM42.6616 44.6779V49.4264H41.5462V44.6779H42.6616ZM44.0803 46.5629V47.4141H42.2735V46.5629H44.0803ZM44.3608 44.6779V45.5617H42.2735V44.6779H44.3608Z" fill="#111111"/>
  <path d="M47.5118 48.3077L48.2423 44.6779H49.4946L48.1771 49.4264H47.3748L47.5118 48.3077ZM46.8986 44.6779L47.6324 48.3077L47.7759 49.4264H46.9638L45.6528 44.6779H46.8986Z" fill="#111111"/>
  <path d="M53.7904 48.5458V49.4264H51.7129V48.5458H53.7904ZM52.101 44.6779V49.4264H50.9856V44.6779H52.101ZM53.5197 46.5629V47.4141H51.7129V46.5629H53.5197ZM53.8001 44.6779V45.5617H51.7129V44.6779H53.8001Z" fill="#111111"/>
  <path d="M58.8003 44.6779V49.4264H57.6882L56.4978 46.4716V49.4264H55.3824V44.6779H56.4978L57.6882 47.6326V44.6779H58.8003Z" fill="#111111"/>
  <path d="M62.5546 44.6779V49.4264H61.436V44.6779H62.5546ZM63.7059 44.6779V45.5617H60.3173V44.6779H63.7059Z" fill="#111111"/>
  <path d="M67.2645 48.1642C67.2645 48.0903 67.2569 48.024 67.2417 47.9653C67.2286 47.9044 67.2015 47.8479 67.1602 47.7957C67.121 47.7435 67.0612 47.6913 66.9808 47.6392C66.9003 47.5848 66.7927 47.5283 66.6579 47.4696C66.4883 47.4 66.322 47.3217 66.1589 47.2348C65.9959 47.1456 65.8491 47.0423 65.7186 46.9249C65.5904 46.8053 65.4871 46.6662 65.4088 46.5075C65.3305 46.3466 65.2914 46.1596 65.2914 45.9465C65.2914 45.7421 65.3305 45.5584 65.4088 45.3954C65.4893 45.2301 65.5991 45.0899 65.7382 44.9746C65.8795 44.8572 66.0459 44.7681 66.2372 44.7072C66.4285 44.6442 66.6373 44.6126 66.8634 44.6126C67.1634 44.6126 67.4276 44.6735 67.6559 44.7953C67.8863 44.9149 68.0657 45.0855 68.194 45.3073C68.3245 45.5269 68.3897 45.7867 68.3897 46.0868H67.2776C67.2776 45.9672 67.2623 45.8617 67.2319 45.7704C67.2015 45.6791 67.1536 45.6073 67.0884 45.5552C67.0254 45.503 66.9416 45.4769 66.8373 45.4769C66.7438 45.4769 66.6644 45.4986 66.5992 45.5421C66.5362 45.5856 66.4883 45.6443 66.4557 45.7182C66.4231 45.79 66.4068 45.8693 66.4068 45.9563C66.4068 46.0281 66.4231 46.0933 66.4557 46.152C66.4883 46.2085 66.5329 46.2618 66.5894 46.3118C66.6481 46.3618 66.7155 46.4096 66.7916 46.4553C66.8699 46.501 66.9536 46.5455 67.0427 46.589C67.258 46.6695 67.4482 46.7597 67.6135 46.8597C67.7809 46.9575 67.9211 47.0695 68.0342 47.1956C68.1473 47.3195 68.232 47.4609 68.2886 47.6196C68.3473 47.7783 68.3766 47.9577 68.3766 48.1577C68.3766 48.3708 68.3418 48.5599 68.2723 48.7252C68.2049 48.8904 68.1059 49.0307 67.9755 49.1459C67.845 49.259 67.6874 49.3448 67.5026 49.4035C67.32 49.4622 67.1134 49.4916 66.8829 49.4916C66.672 49.4916 66.4644 49.4612 66.26 49.4003C66.0578 49.3372 65.8741 49.2416 65.7089 49.1133C65.5458 48.9828 65.4153 48.8165 65.3175 48.6143C65.2197 48.4099 65.1707 48.1675 65.1707 47.887H66.2926C66.2926 48.0262 66.3035 48.1436 66.3253 48.2392C66.347 48.3349 66.3807 48.4121 66.4264 48.4708C66.4742 48.5273 66.5351 48.5686 66.609 48.5947C66.6829 48.6186 66.7742 48.6306 66.8829 48.6306C66.983 48.6306 67.0601 48.61 67.1145 48.5686C67.171 48.5252 67.2102 48.4686 67.2319 48.3991C67.2536 48.3273 67.2645 48.249 67.2645 48.1642Z" fill="#111111"/>
  <path d="M69.0093 48.9111C69.0093 48.7545 69.0659 48.6241 69.1789 48.5197C69.292 48.4132 69.4377 48.3599 69.6159 48.3599C69.7964 48.3599 69.9421 48.4132 70.053 48.5197C70.166 48.6241 70.2226 48.7545 70.2226 48.9111C70.2226 49.0676 70.166 49.1992 70.053 49.3057C69.9421 49.4101 69.7964 49.4622 69.6159 49.4622C69.4377 49.4622 69.292 49.4101 69.1789 49.3057C69.0659 49.1992 69.0093 49.0676 69.0093 48.9111Z" fill="#111111"/>
  <path d="M76.4658 47.4076H75.4809L75.4744 46.6575H76.2701C76.4028 46.6575 76.5071 46.6379 76.5832 46.5988C76.6593 46.5575 76.7137 46.4977 76.7463 46.4194C76.7811 46.3411 76.7985 46.2433 76.7985 46.1259C76.7985 45.9911 76.7811 45.8824 76.7463 45.7998C76.7115 45.7171 76.6561 45.6574 76.58 45.6204C76.506 45.5813 76.4093 45.5617 76.2897 45.5617H75.8983V49.4264H74.783V44.6779H76.2897C76.5441 44.6779 76.7713 44.705 76.9713 44.7594C77.1713 44.8116 77.3409 44.892 77.4801 45.0007C77.6214 45.1094 77.729 45.2464 77.803 45.4117C77.8769 45.5747 77.9138 45.7672 77.9138 45.9889C77.9138 46.1824 77.878 46.364 77.8062 46.5336C77.7366 46.7032 77.616 46.8412 77.4442 46.9478C77.2724 47.0521 77.0365 47.1065 76.7365 47.1108L76.4658 47.4076ZM76.4267 49.4264H75.2037L75.5885 48.5458H76.4267C76.5397 48.5458 76.6278 48.5219 76.6908 48.4741C76.7539 48.4241 76.7985 48.3588 76.8246 48.2784C76.8506 48.1958 76.8637 48.1044 76.8637 48.0044C76.8637 47.8827 76.8506 47.7772 76.8246 47.6881C76.8006 47.5989 76.7604 47.5304 76.7039 47.4826C76.6474 47.4326 76.568 47.4076 76.4658 47.4076H75.6276L75.6342 46.6575H76.6028L76.8702 46.9575C77.155 46.9445 77.3779 46.9891 77.5388 47.0913C77.6997 47.1934 77.8127 47.3282 77.878 47.4957C77.9432 47.6631 77.9758 47.8381 77.9758 48.0207C77.9758 48.3317 77.9182 48.5915 77.803 48.8002C77.6899 49.0089 77.5181 49.1655 77.2877 49.2698C77.0572 49.3742 76.7702 49.4264 76.4267 49.4264Z" fill="#111111"/>
  <path d="M82.5194 48.5458V49.4264H80.4419V48.5458H82.5194ZM80.83 44.6779V49.4264H79.7146V44.6779H80.83ZM82.2487 46.5629V47.4141H80.4419V46.5629H82.2487ZM82.5292 44.6779V45.5617H80.4419V44.6779H82.5292Z" fill="#111111"/>
  <path d="M86.2476 44.6779V49.4264H85.129V44.6779H86.2476ZM87.3989 44.6779V45.5617H84.0103V44.6779H87.3989Z" fill="#111111"/>
  <path d="M91.1401 44.6779V49.4264H90.0215V44.6779H91.1401ZM92.2914 44.6779V45.5617H88.9029V44.6779H92.2914Z" fill="#111111"/>
  <path d="M96.7143 48.5458V49.4264H94.6368V48.5458H96.7143ZM95.0249 44.6779V49.4264H93.9095V44.6779H95.0249ZM96.4436 46.5629V47.4141H94.6368V46.5629H96.4436ZM96.7241 44.6779V45.5617H94.6368V44.6779H96.7241Z" fill="#111111"/>
  <path d="M98.3096 44.6779H99.9338C100.251 44.6779 100.526 44.7322 100.759 44.8409C100.992 44.9496 101.17 45.1105 101.294 45.3236C101.42 45.5367 101.483 45.7998 101.483 46.1129C101.483 46.3846 101.448 46.6118 101.379 46.7945C101.311 46.9771 101.215 47.1282 101.092 47.2478C100.968 47.3652 100.822 47.462 100.655 47.5381L100.293 47.75H99.0173L99.0108 46.8662H99.9077C100.01 46.8662 100.095 46.8401 100.162 46.788C100.229 46.7358 100.279 46.6618 100.312 46.5662C100.347 46.4683 100.364 46.352 100.364 46.2172C100.364 46.0802 100.348 45.9628 100.315 45.865C100.283 45.7672 100.235 45.6921 100.172 45.64C100.111 45.5878 100.032 45.5617 99.9338 45.5617H99.425V49.4264H98.3096V44.6779ZM100.413 49.4264L99.5717 47.3261L100.752 47.3195L101.61 49.3775V49.4264H100.413Z" fill="#111111"/>
  <path d="M108.711 48.5458V49.4264H106.634V48.5458H108.711ZM107.022 44.6779V49.4264H105.906V44.6779H107.022ZM108.44 46.5629V47.4141H106.634V46.5629H108.44ZM108.721 44.6779V45.5617H106.634V44.6779H108.721Z" fill="#111111"/>
  <path d="M111.327 44.6779L111.862 46.2564L112.39 44.6779H113.659L112.599 47.0326L113.685 49.4264H112.403L111.862 47.8185L111.317 49.4264H110.029L111.122 47.0326L110.055 44.6779H111.327Z" fill="#111111"/>
  <path d="M116.859 47.8153H115.91V46.9314H116.859C116.97 46.9314 117.059 46.9043 117.126 46.8499C117.196 46.7956 117.246 46.7205 117.276 46.6249C117.309 46.527 117.325 46.4172 117.325 46.2955C117.325 46.165 117.309 46.0444 117.276 45.9335C117.246 45.8226 117.196 45.7335 117.126 45.666C117.059 45.5965 116.97 45.5617 116.859 45.5617H116.318V49.4264H115.202V44.6779H116.859C117.187 44.6779 117.47 44.7474 117.707 44.8866C117.946 45.0257 118.13 45.2171 118.258 45.4606C118.389 45.7019 118.454 45.9781 118.454 46.289C118.454 46.5955 118.389 46.863 118.258 47.0913C118.13 47.3195 117.946 47.4978 117.707 47.6261C117.47 47.7522 117.187 47.8153 116.859 47.8153Z" fill="#111111"/>
  <path d="M122.984 48.5458V49.4264H120.907V48.5458H122.984ZM121.295 44.6779V49.4264H120.18V44.6779H121.295ZM122.714 46.5629V47.4141H120.907V46.5629H122.714ZM122.994 44.6779V45.5617H120.907V44.6779H122.994Z" fill="#111111"/>
  <path d="M124.58 44.6779H126.204C126.521 44.6779 126.796 44.7322 127.029 44.8409C127.261 44.9496 127.44 45.1105 127.564 45.3236C127.69 45.5367 127.753 45.7998 127.753 46.1129C127.753 46.3846 127.718 46.6118 127.648 46.7945C127.581 46.9771 127.485 47.1282 127.361 47.2478C127.238 47.3652 127.092 47.462 126.924 47.5381L126.562 47.75H125.287L125.281 46.8662H126.178C126.28 46.8662 126.365 46.8401 126.432 46.788C126.499 46.7358 126.549 46.6618 126.582 46.5662C126.617 46.4683 126.634 46.352 126.634 46.2172C126.634 46.0802 126.618 45.9628 126.585 45.865C126.553 45.7672 126.505 45.6921 126.442 45.64C126.381 45.5878 126.302 45.5617 126.204 45.5617H125.695V49.4264H124.58V44.6779ZM126.683 49.4264L125.842 47.3261L127.022 47.3195L127.88 49.3775V49.4264H126.683Z" fill="#111111"/>
  <path d="M130.669 44.6779V49.4264H129.557V44.6779H130.669Z" fill="#111111"/>
  <path d="M135.314 48.5458V49.4264H133.236V48.5458H135.314ZM133.624 44.6779V49.4264H132.509V44.6779H133.624ZM135.043 46.5629V47.4141H133.236V46.5629H135.043ZM135.323 44.6779V45.5617H133.236V44.6779H135.323Z" fill="#111111"/>
  <path d="M140.324 44.6779V49.4264H139.212L138.021 46.4716V49.4264H136.906V44.6779H138.021L139.212 47.6326V44.6779H140.324Z" fill="#111111"/>
  <path d="M144.316 47.8185H145.431C145.434 48.1751 145.364 48.4795 145.223 48.7317C145.084 48.9817 144.887 49.1709 144.632 49.2992C144.378 49.4275 144.08 49.4916 143.739 49.4916C143.463 49.4916 143.218 49.4438 143.005 49.3481C142.792 49.2524 142.613 49.1133 142.467 48.9307C142.321 48.748 142.211 48.5273 142.137 48.2686C142.064 48.0077 142.027 47.712 142.027 47.3815V46.7195C142.027 46.3912 142.066 46.0965 142.144 45.8356C142.224 45.5747 142.337 45.353 142.483 45.1703C142.631 44.9877 142.809 44.8485 143.018 44.7529C143.229 44.6572 143.464 44.6094 143.722 44.6094C144.086 44.6094 144.392 44.6779 144.642 44.8148C144.894 44.9496 145.088 45.1453 145.223 45.4019C145.357 45.6563 145.429 45.9617 145.438 46.3183H144.323C144.333 46.1118 144.32 45.9498 144.283 45.8324C144.246 45.7128 144.181 45.6291 144.088 45.5813C143.996 45.5312 143.875 45.5062 143.722 45.5062C143.618 45.5062 143.53 45.5269 143.458 45.5682C143.387 45.6095 143.329 45.678 143.285 45.7737C143.242 45.8672 143.21 45.9911 143.191 46.1455C143.171 46.2998 143.162 46.489 143.162 46.7129V47.3815C143.162 47.6098 143.169 47.8011 143.184 47.9555C143.2 48.1099 143.228 48.2349 143.269 48.3306C143.313 48.4241 143.371 48.4915 143.445 48.5328C143.521 48.5741 143.619 48.5947 143.739 48.5947C143.865 48.5947 143.973 48.5741 144.062 48.5328C144.151 48.4893 144.218 48.4121 144.264 48.3012C144.31 48.1882 144.327 48.0273 144.316 47.8185Z" fill="#111111"/>
  <path d="M149.867 48.5458V49.4264H147.79V48.5458H149.867ZM148.178 44.6779V49.4264H147.063V44.6779H148.178ZM149.597 46.5629V47.4141H147.79V46.5629H149.597ZM149.877 44.6779V45.5617H147.79V44.6779H149.877Z" fill="#111111"/>
  <path d="M153.452 48.1642C153.452 48.0903 153.444 48.024 153.429 47.9653C153.416 47.9044 153.389 47.8479 153.348 47.7957C153.309 47.7435 153.249 47.6913 153.168 47.6392C153.088 47.5848 152.98 47.5283 152.845 47.4696C152.676 47.4 152.51 47.3217 152.347 47.2348C152.183 47.1456 152.037 47.0423 151.906 46.9249C151.778 46.8053 151.675 46.6662 151.596 46.5075C151.518 46.3466 151.479 46.1596 151.479 45.9465C151.479 45.7421 151.518 45.5584 151.596 45.3954C151.677 45.2301 151.787 45.0899 151.926 44.9746C152.067 44.8572 152.233 44.7681 152.425 44.7072C152.616 44.6442 152.825 44.6126 153.051 44.6126C153.351 44.6126 153.615 44.6735 153.843 44.7953C154.074 44.9149 154.253 45.0855 154.382 45.3073C154.512 45.5269 154.577 45.7867 154.577 46.0868H153.465C153.465 45.9672 153.45 45.8617 153.419 45.7704C153.389 45.6791 153.341 45.6073 153.276 45.5552C153.213 45.503 153.129 45.4769 153.025 45.4769C152.931 45.4769 152.852 45.4986 152.787 45.5421C152.724 45.5856 152.676 45.6443 152.643 45.7182C152.611 45.79 152.594 45.8693 152.594 45.9563C152.594 46.0281 152.611 46.0933 152.643 46.152C152.676 46.2085 152.72 46.2618 152.777 46.3118C152.836 46.3618 152.903 46.4096 152.979 46.4553C153.057 46.501 153.141 46.5455 153.23 46.589C153.446 46.6695 153.636 46.7597 153.801 46.8597C153.968 46.9575 154.109 47.0695 154.222 47.1956C154.335 47.3195 154.42 47.4609 154.476 47.6196C154.535 47.7783 154.564 47.9577 154.564 48.1577C154.564 48.3708 154.529 48.5599 154.46 48.7252C154.392 48.8904 154.294 49.0307 154.163 49.1459C154.033 49.259 153.875 49.3448 153.69 49.4035C153.508 49.4622 153.301 49.4916 153.071 49.4916C152.86 49.4916 152.652 49.4612 152.448 49.4003C152.245 49.3372 152.062 49.2416 151.896 49.1133C151.733 48.9828 151.603 48.8165 151.505 48.6143C151.407 48.4099 151.358 48.1675 151.358 47.887H152.48C152.48 48.0262 152.491 48.1436 152.513 48.2392C152.535 48.3349 152.568 48.4121 152.614 48.4708C152.662 48.5273 152.723 48.5686 152.797 48.5947C152.87 48.6186 152.962 48.6306 153.071 48.6306C153.171 48.6306 153.248 48.61 153.302 48.5686C153.359 48.5252 153.398 48.4686 153.419 48.3991C153.441 48.3273 153.452 48.249 153.452 48.1642Z" fill="#111111"/>
  <path d="M155.197 48.9111C155.197 48.7545 155.253 48.6241 155.367 48.5197C155.48 48.4132 155.625 48.3599 155.804 48.3599C155.984 48.3599 156.13 48.4132 156.241 48.5197C156.354 48.6241 156.41 48.7545 156.41 48.9111C156.41 49.0676 156.354 49.1992 156.241 49.3057C156.13 49.4101 155.984 49.4622 155.804 49.4622C155.625 49.4622 155.48 49.4101 155.367 49.3057C155.253 49.1992 155.197 49.0676 155.197 48.9111Z" fill="#111111"/>
</svg>